<svg width="43" height="43" viewBox="0 0 43 43" fill="none" xmlns="http://www.w3.org/2000/svg">
<path d="M21.4998 3.58334C18.0248 3.58995 14.6268 4.60694 11.7195 6.51046C8.81227 8.41397 6.5213 11.1219 5.12568 14.3043C3.73005 17.4867 3.29 21.0063 3.85912 24.4343C4.42824 27.8624 5.98198 31.051 8.33107 33.6117C10.0088 35.4303 12.0451 36.8817 14.3115 37.8744C16.578 38.8671 19.0255 39.3796 21.4998 39.3796C23.9741 39.3796 26.4216 38.8671 28.6881 37.8744C30.9546 36.8817 32.9908 35.4303 34.6686 33.6117C37.0177 31.051 38.5714 27.8624 39.1405 24.4343C39.7096 21.0063 39.2696 17.4867 37.874 14.3043C36.4783 11.1219 34.1874 8.41397 31.2801 6.51046C28.3729 4.60694 24.9748 3.58995 21.4998 3.58334ZM21.4998 35.8333C17.7883 35.8277 14.2237 34.3826 11.5561 31.8021C12.366 29.8304 13.7438 28.144 15.5143 26.9572C17.2849 25.7704 19.3683 25.1367 21.4998 25.1367C23.6314 25.1367 25.7148 25.7704 27.4853 26.9572C29.2559 28.144 30.6337 29.8304 31.4436 31.8021C28.7759 34.3826 25.2113 35.8277 21.4998 35.8333ZM17.9165 17.9167C17.9165 17.208 18.1266 16.5152 18.5204 15.9259C18.9141 15.3366 19.4738 14.8773 20.1285 14.6061C20.7833 14.3349 21.5038 14.2639 22.1989 14.4022C22.894 14.5405 23.5325 14.8817 24.0336 15.3829C24.5348 15.884 24.876 16.5225 25.0143 17.2176C25.1526 17.9127 25.0816 18.6332 24.8104 19.288C24.5392 19.9427 24.0799 20.5024 23.4906 20.8961C22.9013 21.2899 22.2085 21.5 21.4998 21.5C20.5495 21.5 19.638 21.1225 18.966 20.4505C18.294 19.7785 17.9165 18.867 17.9165 17.9167ZM33.8802 28.6667C32.2794 25.9286 29.8157 23.7988 26.8748 22.6108C27.7871 21.5764 28.3815 20.3008 28.5867 18.9369C28.7919 17.5731 28.5992 16.179 28.0318 14.9219C27.4643 13.6648 26.5462 12.5982 25.3876 11.85C24.2289 11.1018 22.879 10.7039 21.4998 10.7039C20.1206 10.7039 18.7707 11.1018 17.6121 11.85C16.4534 12.5982 15.5353 13.6648 14.9679 14.9219C14.4004 16.179 14.2077 17.5731 14.4129 18.9369C14.6182 20.3008 15.2126 21.5764 16.1248 22.6108C13.184 23.7988 10.7202 25.9286 9.11941 28.6667C7.84364 26.4936 7.16957 24.0199 7.16649 21.5C7.16649 17.6986 8.6766 14.0528 11.3646 11.3648C14.0526 8.67679 17.6984 7.16668 21.4998 7.16668C25.3013 7.16668 28.947 8.67679 31.635 11.3648C34.323 14.0528 35.8332 17.6986 35.8332 21.5C35.8301 24.0199 35.156 26.4936 33.8802 28.6667Z" fill="#4C7A39"/>
</svg>
